<?xml version="1.0" encoding="iso-8859-1"?>
<!-- Generator: Adobe Illustrator 19.0.0, SVG Export Plug-In . SVG Version: 6.00 Build 0)  -->
<svg version="1.1" id="Layer_1" xmlns="http://www.w3.org/2000/svg" xmlns:xlink="http://www.w3.org/1999/xlink" x="0px" y="0px"
	 viewBox="0 0 512 512" style="enable-background:new 0 0 512 512;" xml:space="preserve">
<g>
	<g>
		<rect x="244.87" y="389.565" width="33.391" height="44.521"/>
	</g>
</g>
<g>
	<g>
		<rect x="200.348" y="434.087" width="44.522" height="33.391"/>
	</g>
</g>
<g>
	<g>
		<g>
			<rect x="244.87" y="467.479" width="33.391" height="44.521"/>
			<rect x="278.261" y="434.088" width="44.522" height="33.391"/>
		</g>
	</g>
</g>
<g>
	<g>
		<rect x="44.522" y="356.174" width="33.391" height="44.521"/>
	</g>
</g>
<g>
	<g>
		<rect y="400.696" width="44.522" height="33.391"/>
	</g>
</g>
<g>
	<g>
		<g>
			<rect x="44.522" y="434.087" width="33.391" height="44.521"/>
			<rect x="77.913" y="400.697" width="44.522" height="33.391"/>
		</g>
	</g>
</g>
<g>
	<g>
		<rect x="434.087" y="356.174" width="33.391" height="44.521"/>
	</g>
</g>
<g>
	<g>
		<rect x="389.565" y="400.696" width="44.522" height="33.391"/>
	</g>
</g>
<g>
	<g>
		<g>
			<rect x="434.087" y="434.087" width="33.391" height="44.521"/>
			<rect x="467.478" y="400.697" width="44.522" height="33.391"/>
		</g>
	</g>
</g>
<g>
	<g>
		<rect x="155.826" y="33.391" width="33.391" height="33.391"/>
	</g>
</g>
<g>
	<g>
		<rect x="122.435" y="66.783" width="33.391" height="33.391"/>
	</g>
</g>
<g>
	<g>
		<g>
			<rect x="89.044" y="100.174" width="33.391" height="155.826"/>
			<rect x="122.435" y="256" width="33.391" height="33.391"/>
		</g>
	</g>
</g>
<g>
	<g>
		<rect x="155.826" y="289.391" width="33.391" height="33.391"/>
	</g>
</g>
<g>
	<g>
		<polygon points="244.871,222.609 244.871,133.566 211.479,133.566 211.479,222.61 244.87,222.61 244.87,256 278.261,256 
			278.261,222.609 		"/>
	</g>
</g>
<g>
	<g>
		<rect x="244.87" y="100.174" width="33.391" height="33.391"/>
	</g>
</g>
<g>
	<g>
		<rect x="189.217" width="166.956" height="33.391"/>
	</g>
</g>
<g>
	<g>
		<polygon points="356.174,256 278.261,256 278.261,289.391 356.174,289.391 356.174,322.783 389.565,322.783 389.565,289.391 
			389.565,256 		"/>
	</g>
</g>
<g>
	<g>
		<polygon points="356.174,33.391 356.174,66.783 278.261,66.783 278.261,100.174 356.174,100.174 389.565,100.174 389.565,66.783 
			389.565,33.391 		"/>
	</g>
</g>
<g>
	<g>
		<rect x="189.217" y="322.783" width="166.956" height="33.391"/>
	</g>
</g>
<g>
</g>
<g>
</g>
<g>
</g>
<g>
</g>
<g>
</g>
<g>
</g>
<g>
</g>
<g>
</g>
<g>
</g>
<g>
</g>
<g>
</g>
<g>
</g>
<g>
</g>
<g>
</g>
<g>
</g>
</svg>
