<?xml version="1.0" encoding="iso-8859-1"?>
<!-- Generator: Adobe Illustrator 19.0.0, SVG Export Plug-In . SVG Version: 6.00 Build 0)  -->
<svg version="1.1" id="Layer_1" xmlns="http://www.w3.org/2000/svg" xmlns:xlink="http://www.w3.org/1999/xlink" x="0px" y="0px"
	 viewBox="0 0 512 512" style="enable-background:new 0 0 512 512;" xml:space="preserve">
<g>
	<g>
		<rect x="155.826" y="200.348" width="33.391" height="33.391"/>
	</g>
</g>
<g>
	<g>
		<rect x="33.391" y="322.783" width="33.391" height="33.391"/>
	</g>
</g>
<g>
	<g>
		<rect x="155.826" y="322.783" width="33.391" height="33.391"/>
	</g>
</g>
<g>
	<g>
		<polygon points="33.391,445.217 33.391,356.174 0,356.174 0,445.219 33.391,445.219 33.391,478.609 66.783,478.609 
			66.783,445.217 		"/>
	</g>
</g>
<g>
	<g>
		<rect x="189.217" y="166.957" width="133.565" height="33.391"/>
	</g>
</g>
<g>
	<g>
		<polygon points="122.435,233.739 122.435,289.391 66.783,289.391 66.783,322.783 122.435,322.783 155.826,322.783 
			155.826,289.391 155.826,233.739 		"/>
	</g>
</g>
<g>
	<g>
		<polygon points="478.609,356.175 478.609,445.217 445.217,445.217 445.217,478.609 478.609,478.609 478.609,445.219 512,445.219 
			512,356.175 		"/>
	</g>
</g>
<g>
	<g>
		<rect x="66.783" y="478.609" width="378.435" height="33.391"/>
	</g>
</g>
<g>
	<g>
		<g>
			<rect x="322.783" y="200.348" width="33.391" height="33.391"/>
			<polygon points="389.565,289.391 389.565,233.739 356.174,233.739 356.174,289.391 356.174,322.783 445.217,322.783 
				445.217,289.391 			"/>
		</g>
	</g>
</g>
<g>
	<g>
		<rect x="445.217" y="322.783" width="33.391" height="33.391"/>
	</g>
</g>
<g>
	<g>
		<rect x="322.783" y="322.783" width="33.391" height="33.391"/>
	</g>
</g>
<g>
	<g>
		<rect x="222.609" y="100.174" width="33.391" height="33.391"/>
	</g>
</g>
<g>
	<g>
		<polygon points="189.217,33.391 189.217,66.783 155.826,66.783 155.826,100.174 189.217,100.174 222.609,100.174 222.609,66.783 
			222.609,33.391 		"/>
	</g>
</g>
<g>
	<g>
		<g>
			<rect x="89.044" y="133.565" width="33.391" height="66.783"/>
			<rect x="122.435" y="100.174" width="33.391" height="33.391"/>
		</g>
	</g>
</g>
<g>
	<g>
		<g>
			<polygon points="411.826,66.783 411.826,33.391 378.435,33.391 378.435,66.783 378.435,100.174 445.217,100.174 445.217,66.783 
							"/>
			<rect x="222.609" width="155.826" height="33.391"/>
			<rect x="478.609" y="133.565" width="33.391" height="100.174"/>
			<rect x="445.217" y="100.174" width="33.391" height="33.391"/>
		</g>
	</g>
</g>
<g>
	<g>
		<rect x="445.217" y="233.739" width="33.391" height="33.391"/>
	</g>
</g>
<g>
	<g>
		<rect x="345.043" y="100.174" width="33.391" height="33.391"/>
	</g>
</g>
<g>
</g>
<g>
</g>
<g>
</g>
<g>
</g>
<g>
</g>
<g>
</g>
<g>
</g>
<g>
</g>
<g>
</g>
<g>
</g>
<g>
</g>
<g>
</g>
<g>
</g>
<g>
</g>
<g>
</g>
</svg>
